<svg xmlns="http://www.w3.org/2000/svg" width="253.837" height="263.8" viewBox="0 0 253.837 263.8"><g transform="translate(0.568 145.677)"><path d="M25.974,142.416v-17.3H11.694v17.3H.55V99.16H11.694v16.249h14.28V99.16H37.118v43.256Z" transform="translate(-0.55 -98.331)" fill="#fff"/><path d="M29.07,122.041c0-13.378,9.739-23.441,23-23.441,12.742,0,23.064,9.767,23.064,22.154A22.437,22.437,0,0,1,52.6,143.484C40.453,143.5,29.07,134.842,29.07,122.041Zm34.924-.932c0-6.778-4.9-12.8-11.92-12.8-6.961,0-11.861,5.786-11.861,12.623,0,7.133,4.9,12.86,12.04,12.86C59.155,133.791,63.994,128,63.994,121.109Z" transform="translate(13.532 -98.6)" fill="#fff"/><path d="M64.14,142.416V99.16H75.3v33.548H88.22v9.708Z" transform="translate(30.849 -98.331)" fill="#fff"/><path d="M83.38,142.416V99.16H94.524v33.548h12.921v9.708Z" transform="translate(40.349 -98.331)" fill="#fff"/><path d="M100.76,122.041c0-13.378,9.739-23.441,23-23.441,12.742,0,23.064,9.767,23.064,22.154a22.437,22.437,0,0,1-22.541,22.731C112.143,143.5,100.76,134.842,100.76,122.041Zm34.924-.932c0-6.778-4.9-12.8-11.92-12.8-6.961,0-11.861,5.786-11.861,12.623,0,7.133,4.9,12.86,12.04,12.86C130.845,133.791,135.684,128,135.684,121.109Z" transform="translate(48.931 -98.6)" fill="#fff"/><path d="M167.2,142.416l-6.543-28h-.12l-6.543,28H143.913L132.65,99.16h11.323l5.841,28.117h.12l6.438-28.117h8.559l6.319,28.236h.12l5.96-28.236h11.263L177.03,142.416Z" transform="translate(64.678 -98.331)" fill="#fff"/></g><g transform="translate(0 213.973)"><path d="M25.005,158.759c0-1.628-.956-3.759-5.049-3.759H16.64v7.459h3.5C24.378,162.458,25.005,160.031,25.005,158.759Z" transform="translate(7.962 -139.831)" fill="#fff"/><path d="M121.465,158.759c0-1.628-.956-3.759-5.049-3.759H113.1v7.459h3.5C120.838,162.458,121.465,160.031,121.465,158.759Z" transform="translate(55.592 -139.831)" fill="#fff"/><path d="M117.283,161.38H113.1v8.494h4.183c2.838,0,5.437-1.125,5.437-4.292C122.72,163.1,120.539,161.38,117.283,161.38Z" transform="translate(55.592 -136.77)" fill="#fff"/><path d="M20.823,161.38H16.64v8.494h4.183c2.838,0,5.437-1.125,5.437-4.292C26.26,163.1,24.079,161.38,20.823,161.38Z" transform="translate(7.962 -136.77)" fill="#fff"/><path d="M48.38,165.4h8.574L52.712,155.34Z" transform="translate(23.635 -139.668)" fill="#fff"/><path d="M130.12,165.4h8.574l-4.242-10.063Z" transform="translate(63.996 -139.668)" fill="#fff"/><path d="M.17,144.75v49.827H253.977V144.75Zm28.964,35.087H22.562v-21.9h5.676c4.631,0,7.11,2.516,7.11,5.831,0,1.805-.657,3.019-2.42,4.41a5.724,5.724,0,0,1,3.675,5.387C36.6,176.552,34.9,179.837,29.134,179.837Zm28.531-19.919H47.777v7.873h9.56v1.983h-9.56v8.08h9.889v1.983h-12.1v-21.9h12.1Zm27.157,19.919-3.2-7.37H71.348l-3.227,7.37h-2.3l9.441-21.9h2.48l9.5,21.9Zm21.57.385a11.322,11.322,0,1,1,10.1-16.663h-2.48a9.37,9.37,0,0,0-7.678-4,9.338,9.338,0,0,0,.03,18.676A9.684,9.684,0,0,0,114.1,174.1h2.48A11.715,11.715,0,0,1,106.392,180.222Zm35.552-.385h-2.211v-10.27H128.291v10.27H126.08v-21.9h2.211v9.649h11.442v-9.649h2.211Zm31.28,0h-6.573v-21.9h5.676c4.631,0,7.11,2.516,7.11,5.831,0,1.805-.657,3.019-2.42,4.41a5.724,5.724,0,0,1,3.675,5.387C180.693,176.552,178.99,179.837,173.224,179.837Zm33.7,0-3.2-7.37H193.45l-3.227,7.37h-2.3l9.441-21.9h2.48l9.5,21.9Zm25.484,0h-2.778l-7.5-9.915h2.151c3.914,0,6.244-1.983,6.244-4.972,0-2.072-1.285-5.032-6.363-5.032h-4.212v19.919h-2.211v-21.9H224.4c5.766,0,8.335,3.374,8.335,7.074a6.72,6.72,0,0,1-6.573,6.659Z" transform="translate(-0.17 -144.75)" fill="#fff"/></g><g transform="translate(0.03)"><path d="M70.672,77.734a65.115,65.115,0,0,1,39.466-16.2V.16A127.1,127.1,0,0,0,26.86,34.33Z" transform="translate(12.979 -0.16)" fill="#fff"/><path d="M87.66.16V61.545a65.078,65.078,0,0,1,39.465,16.2l43.812-43.4A127.041,127.041,0,0,0,87.66.16Z" transform="translate(43 -0.16)" fill="#fff"/><path d="M.19,109.337H62.152a63.851,63.851,0,0,1,16.357-39.1L34.7,26.82A124.73,124.73,0,0,0,.19,109.337Z" transform="translate(-0.19 12.633)" fill="#fff"/><path d="M161.462,26.82l-43.812,43.4a63.887,63.887,0,0,1,16.357,39.1h61.962A124.722,124.722,0,0,0,161.462,26.82Z" transform="translate(57.809 12.633)" fill="#fff"/></g></svg>