<?xml version="1.0" standalone="no"?>
<!DOCTYPE svg PUBLIC "-//W3C//DTD SVG 20010904//EN"
 "http://www.w3.org/TR/2001/REC-SVG-20010904/DTD/svg10.dtd">
<svg version="1.0" xmlns="http://www.w3.org/2000/svg"
 width="38.000000pt" height="19.000000pt" viewBox="0 0 38.000000 19.000000"
 preserveAspectRatio="xMidYMid meet">

<g transform="translate(0.000000,19.000000) scale(0.100000,-0.100000)"
fill="#f4e8bb" stroke="none">
<path d="M115 171 c-48 -22 -79 -54 -100 -103 -22 -54 -20 -58 29 -58 39 0 45
3 56 30 12 29 11 33 -16 63 l-29 32 32 -29 c30 -27 34 -28 63 -16 27 11 30 17
30 56 0 50 -6 52 -65 25z"/>
<path d="M190 148 c0 -40 3 -45 32 -56 29 -11 34 -10 60 15 15 15 28 29 28 33
0 10 -53 37 -87 45 l-33 7 0 -44z"/>
<path d="M294 98 c-27 -29 -30 -36 -20 -60 9 -25 15 -28 53 -28 34 0 43 4 43
18 0 17 -36 102 -43 102 -1 0 -17 -15 -33 -32z"/>
</g>
</svg>
